<svg xmlns="http://www.w3.org/2000/svg" version="1.1" xmlns:xlink="http://www.w3.org/1999/xlink" xmlns:svgjs="http://svgjs.dev/svgjs" width="2000" height="489" viewBox="0 0 2000 489"><g transform="matrix(1,0,0,1,-1.2121212121212466,-0.21188071296694488)"><svg viewBox="0 0 396 97" data-background-color="#ffffff" preserveAspectRatio="xMidYMid meet" height="489" width="2000" xmlns="http://www.w3.org/2000/svg" xmlns:xlink="http://www.w3.org/1999/xlink"><g id="tight-bounds" transform="matrix(1,0,0,1,0.2400000000000091,0.04202950748015155)"><svg viewBox="0 0 395.52 96.9159409850397" height="96.9159409850397" width="395.52"><g><svg viewBox="0 0 589.5389117987817 144.4572167887218" height="96.9159409850397" width="395.52"><g transform="matrix(1,0,0,1,194.0189117987816,19.743714747760038)"><svg viewBox="0 0 395.52000000000004 104.96978729320173" height="104.96978729320173" width="395.52000000000004"><g id="textblocktransform"><svg viewBox="0 0 395.52000000000004 104.96978729320173" height="104.96978729320173" width="395.52000000000004" id="textblock"><g><svg viewBox="0 0 395.52000000000004 104.96978729320173" height="104.96978729320173" width="395.52000000000004"><g transform="matrix(1,0,0,1,0,0)"><svg width="395.52000000000004" viewBox="2.76 -36.23 175.60000000000002 46.61" height="104.96978729320173" data-palette-color="#000000"><path d="M26.88-17.21L26.88-3.25Q21.29 0.49 15.6 0.49L15.6 0.49Q9.5 0.49 6.13-4.04 2.76-8.57 2.76-16.63L2.76-16.63Q2.76-25.1 5.98-29.27 9.2-33.45 15.67-33.45L15.67-33.45Q24.12-33.45 26.93-25.37L26.93-25.37 22.75-24Q20.8-29.64 15.72-29.64L15.72-29.64Q11.6-29.64 9.63-26.56 7.67-23.49 7.67-16.63L7.67-16.63Q7.67-3.3 15.99-3.3L15.99-3.3Q17.65-3.3 19.43-3.81 21.22-4.32 22.34-5.1L22.34-5.1 22.34-13.31 15.19-13.31 15.19-17.21 26.88-17.21ZM56.78-13.23L56.78-13.23Q56.78-6.57 53.72-3.04 50.66 0.49 44.87 0.49L44.87 0.49Q39.21 0.49 36.19-3.08 33.18-6.64 33.18-13.23L33.18-13.23Q33.18-20.04 36.26-23.47 39.35-26.9 45.02-26.9L45.02-26.9Q50.97-26.9 53.88-23.51 56.78-20.12 56.78-13.23ZM52.17-13.23L52.17-13.23Q52.17-18.48 50.5-21.07 48.83-23.66 45.09-23.66L45.09-23.66Q41.31-23.66 39.55-21.02 37.79-18.38 37.79-13.23L37.79-13.23Q37.79-8.11 39.55-5.43 41.31-2.76 44.82-2.76L44.82-2.76Q48.7-2.76 50.44-5.37 52.17-7.98 52.17-13.23ZM78.19-26.42L78.19-3.47 87.47-3.47 87.47 0 63.5 0 63.5-3.47 73.8-3.47 73.8-22.95 66.01-22.95 66.01-26.42 78.19-26.42ZM78.19-31.54L73.31-31.54 73.31-36.23 78.19-36.23 78.19-31.54ZM117.33-23.07L117.33-23.07Q117.33-20.02 115.87-17.63 114.42-15.23 111.72-13.89 109.03-12.55 105.49-12.55L105.49-12.55 98.63-12.55 98.63 0 93.96 0 93.96-32.93 105.19-32.93Q111-32.93 114.16-30.33 117.33-27.73 117.33-23.07ZM112.64-23L112.64-23Q112.64-29.2 104.63-29.2L104.63-29.2 98.63-29.2 98.63-16.24 104.83-16.24Q108.46-16.24 110.55-18.02 112.64-19.8 112.64-23ZM146.89-2.71L146.89-2.71Q147.52-2.71 148.33-2.88L148.33-2.88 148.33-0.15Q146.67 0.24 144.94 0.24L144.94 0.24Q142.49 0.24 141.38-1.04 140.27-2.32 140.13-5.05L140.13-5.05 139.98-5.05Q138.39-2.1 136.23-0.81 134.07 0.49 130.9 0.49L130.9 0.49Q127.04 0.49 125.09-1.61 123.13-3.71 123.13-7.37L123.13-7.37Q123.13-15.89 134.22-16.02L134.22-16.02 139.98-16.11 139.98-17.55Q139.98-20.75 138.69-22.16 137.39-23.56 134.56-23.56L134.56-23.56Q131.68-23.56 130.41-22.53 129.14-21.51 128.9-19.36L128.9-19.36 124.31-19.78Q125.43-26.9 134.63-26.9L134.63-26.9Q139.52-26.9 141.97-24.62 144.42-22.34 144.42-18.02L144.42-18.02 144.42-6.64Q144.42-4.69 144.94-3.7 145.45-2.71 146.89-2.71ZM132.02-2.86L132.02-2.86Q134.37-2.86 136.17-3.98 137.98-5.1 138.98-6.98 139.98-8.86 139.98-10.86L139.98-10.86 139.98-13.04 135.34-12.94Q132.46-12.89 130.95-12.3 129.43-11.72 128.59-10.51 127.75-9.3 127.75-7.3L127.75-7.3Q127.75-5.3 128.84-4.08 129.92-2.86 132.02-2.86ZM157.14 10.38L157.14 10.38Q155.33 10.38 154.11 10.11L154.11 10.11 154.11 6.81Q155.04 6.96 156.16 6.96L156.16 6.96Q158.09 6.96 159.79 5.52 161.49 4.08 162.66 0.93L162.66 0.93 163.1-0.27 151.62-26.42 156.31-26.42 162.76-10.74Q164.98-5.27 165.15-4.54L165.15-4.54 166.15-7.23 173.72-26.42 178.36-26.42 167.22 0Q165.05 5.74 162.72 8.06 160.39 10.38 157.14 10.38Z" opacity="1" transform="matrix(1,0,0,1,0,0)" fill="#ffffff" class="wordmark-text-0" data-fill-palette-color="primary" id="text-0"></path></svg></g></svg></g></svg></g></svg></g><g><svg viewBox="0 0 144.4572167887218 144.4572167887218" height="144.4572167887218" width="144.4572167887218"><g><svg></svg></g><g id="icon-0"><svg viewBox="0 0 144.4572167887218 144.4572167887218" height="144.4572167887218" width="144.4572167887218"><g><path d="M0 72.229c0-39.891 32.338-72.229 72.229-72.229 39.891 0 72.229 32.338 72.228 72.229 0 39.891-32.338 72.229-72.228 72.228-39.891 0-72.229-32.338-72.229-72.228zM72.229 134.991c34.663 0 62.762-28.1 62.762-62.762 0-34.663-28.1-62.762-62.762-62.763-34.663 0-62.762 28.1-62.763 62.763 0 34.663 28.1 62.762 62.763 62.762z" data-fill-palette-color="tertiary" fill="#ffffff" stroke="transparent"></path></g><g transform="matrix(1,0,0,1,49.73919105105962,33.46621287932099)"><svg viewBox="0 0 44.978834686602575 77.52479103007983" height="77.52479103007983" width="44.978834686602575"><g><svg xmlns="http://www.w3.org/2000/svg" xmlns:xlink="http://www.w3.org/1999/xlink" version="1.1" x="0" y="0" viewBox="21.679106830508616 1 56.85827385947762 98" enable-background="new 0 0 100 100" xml:space="preserve" height="77.52479103007983" width="44.978834686602575" class="icon-dxe-0" data-fill-palette-color="accent" id="dxe-0"><g fill="#261f20" data-fill-palette-color="accent"><path fill-rule="evenodd" clip-rule="evenodd" d="M30.545 28.822C29.38 36.039 30.875 43.672 37.045 47.863 30.758 19.81 45.756 8.664 59.646 1 43.466 24.046 76.542 24.644 78.423 51.13 80.028 73.71 64.507 91.317 46.639 99 46.845 76.175 24.089 73.067 21.801 54.397 20.905 47.094 25.062 33.766 30.545 28.822" fill="#ffffff" data-fill-palette-color="accent"></path></g></svg></g></svg></g></svg></g></svg></g></svg></g><defs></defs></svg><rect width="395.52" height="96.9159409850397" fill="none" stroke="none" visibility="hidden"></rect></g></svg></g></svg>